<?xml version="1.0" standalone="no"?>
<!DOCTYPE svg PUBLIC "-//W3C//DTD SVG 20010904//EN"
 "http://www.w3.org/TR/2001/REC-SVG-20010904/DTD/svg10.dtd">
<svg version="1.0" xmlns="http://www.w3.org/2000/svg"
 width="500.000000pt" height="500.000000pt" viewBox="0 0 500.000000 500.000000"
 preserveAspectRatio="xMidYMid meet">

<g transform="translate(0.000000,500.000000) scale(0.100000,-0.100000)"
fill="#000000" stroke="none">
<path d="M2362 2032 c-67 -24 -142 -96 -174 -166 -33 -75 -31 -182 5 -253 32
-63 82 -115 140 -145 35 -19 58 -23 137 -23 79 0 102 4 137 23 179 95 227 314
104 470 -77 97 -227 137 -349 94z"/>
<path d="M3248 2035 c-64 -21 -149 -100 -179 -167 -34 -77 -33 -184 4 -255 32
-63 82 -115 140 -145 35 -19 58 -23 137 -23 79 0 102 4 137 23 179 95 227 314
104 470 -74 94 -222 135 -343 97z"/>
</g>
</svg>
